# xmcd CD database file
#
# Track frame offsets:
#	150
#	24765
#	48153
#	72515
#	92824
#	111271
#	127824
#	147798
#	163676
#	180090
#
# Disc length: 2837 seconds
#
# Revision: 0
# Processed by: cddbd v1.5.2PL0 Copyright (c) Steve Scherf et al.
# Submitted via: CDex 1.51
#
DISCID=770b130a
DTITLE=The Tribe with Zach Prather - Ju Ju Man
DYEAR=2013
DGENRE=Blues
TTITLE0=Smoke Stack Lightning
TTITLE1=Ju Ju Man
TTITLE2=Easy to Lose
TTITLE3=Undertow
TTITLE4=Push
TTITLE5=Catch me when I fall
TTITLE6=Mississippi Nights
TTITLE7=Keep on moving
TTITLE8=inside out
TTITLE9=Cold cold feeling
EXTD=YEAR: 2013
EXTT0=
EXTT1=
EXTT2=
EXTT3=
EXTT4=
EXTT5=
EXTT6=
EXTT7=
EXTT8=
EXTT9=
PLAYORDER=
